<?xml version="1.0" encoding="utf-8"?>
<!-- Generator: Adobe Illustrator 24.3.0, SVG Export Plug-In . SVG Version: 6.00 Build 0)  -->
<svg version="1.1" id="Layer_1" xmlns="http://www.w3.org/2000/svg" xmlns:xlink="http://www.w3.org/1999/xlink" x="0px" y="0px"
	 viewBox="0 0 164.3 46.1" style="enable-background:new 0 0 164.3 46.1;" xml:space="preserve">
<style type="text/css">
	.st0{fill:#333333;}
	.st1{fill:#7CA53B;}
</style>
<g>
	<g>
		<path class="st0" d="M0,17.2h5v23.1h3.7V17.2h5V14H0V17.2z M28.4,25.8H21V14h-3.7v26.3H21V29h7.4v11.3h3.7V14h-3.7V25.8z M38,40.3
			h12v-3.2h-8.3v-8.5h7.3v-3.2h-7.3v-8.2h8.3V14H38V40.3z M119.3,36.5c-0.6,0.4-1.6,0.7-2.9,0.7c-2.3,0-3.4-0.9-3.4-2.8V20.1
			c0-2,1.4-2.9,4.1-2.9c1.7,0,3.3,0.3,4.9,0.8v-3.5c-1.5-0.4-3.2-0.7-4.9-0.7c-2.6,0-4.6,0.5-5.8,1.6c-1.3,1.1-1.9,2.5-1.9,4.4v14.9
			c0,1.9,0.6,3.4,1.9,4.4c1.2,1,3,1.5,5.4,1.5c2.3,0,4.5-0.5,6.3-1.6V27h-3.6V36.5z M128.3,40.3h12v-3.2H132v-8.5h7.3v-3.2H132v-8.2
			h8.3V14h-12V40.3z M160.2,14l-5.6,15.6L149.1,14H145v26.3h3.5V27.8c0-2.8-0.1-5.4-0.4-7.8l4.9,13.3h3.4l4.9-13.3
			c-0.3,2.5-0.4,5.1-0.4,7.8v12.5h3.5V14H160.2z"/>
	</g>
</g>
<g>
	<g>
		<g>
			<path class="st1" d="M101.4,16.9L81.3,2.3L79.4,1l-1.3,1L58,16.6l-0.5,0.4l-1.3,1l0.5,1.6l0.2,0.6l7.7,23.7l0.5,1.6h2.3h24.9h1.7
				l0.7-2.2l7.5-23l0.7-2.2L101.4,16.9z M80.3,5.5L96,16.9H76.5l1-3L80.3,5.5z M76.4,7.1L74,14.7l-0.7,2.2H62.8L76.4,7.1z
				 M71.3,22.8l-0.9,2.8l-7.6-5.5h9.4L71.3,22.8z M66.2,38.6l-5.2-16l8.4,6.1L66.2,38.6z M68.4,42.2l3-9.2l0.7-2.2l6.3,4.5l9.5,6.9
				h0H68.4z M91.9,41.2L80.6,33l-7.5-5.5l1.2-3.7l1.2-3.7h23.2L91.9,41.2z"/>
		</g>
	</g>
	<g>
		<g>
			<path class="st1" d="M94.4,46.1h-30l-9.3-28.5L79.4,0l24.2,17.6L94.4,46.1z M65.6,44.5h27.7l8.6-26.3L79.4,1.9L57,18.2L65.6,44.5
				z M90.3,43h-23l4.4-13.5L90.3,43z M69.4,41.4h16L72.5,32L69.4,41.4z M92.3,42.5L72.2,27.9l2.8-8.5h24.9L92.3,42.5z M74,27.3
				l17.4,12.7l6.2-19H76.1L74,27.3z M66.2,41.2l-6.7-20.6l10.8,7.9L66.2,41.2z M62.5,24.7l3.7,11.4l2.3-7L62.5,24.7z M70.8,26.9
				l-10.4-7.6h12.9L70.8,26.9z M65.3,20.9l4.7,3.4l1.1-3.4H65.3z M98.5,17.7h-23l4.4-13.5L98.5,17.7z M77.6,16.2h16L80.7,6.8
				L77.6,16.2z M73.8,17.7H60.4L77.9,5L73.8,17.7z M65.3,16.2h7.4l2.3-7L65.3,16.2z"/>
		</g>
	</g>
</g>
</svg>
